<?xml version="1.0" encoding="UTF-8" standalone="no"?>
<!-- Created with Inkscape (http://www.inkscape.org/) -->
<svg
   xmlns:dc="http://purl.org/dc/elements/1.1/"
   xmlns:cc="http://web.resource.org/cc/"
   xmlns:rdf="http://www.w3.org/1999/02/22-rdf-syntax-ns#"
   xmlns:svg="http://www.w3.org/2000/svg"
   xmlns="http://www.w3.org/2000/svg"
   xmlns:sodipodi="http://sodipodi.sourceforge.net/DTD/sodipodi-0.dtd"
   xmlns:inkscape="http://www.inkscape.org/namespaces/inkscape"
   width="387.93042"
   height="389.24786"
   id="svg2"
   sodipodi:version="0.32"
   inkscape:version="0.45.1"
   version="1.0"
   sodipodi:docbase="C:\Documents and Settings\Brane\Desktop"
   sodipodi:docname="Hidari mitsudomoe.svg"
   inkscape:output_extension="org.inkscape.output.svg.inkscape">
  <defs
     id="defs4" />
  <sodipodi:namedview
     id="base"
     pagecolor="#ffffff"
     bordercolor="#666666"
     borderopacity="1.0"
     gridtolerance="10000"
     guidetolerance="10"
     objecttolerance="10"
     inkscape:pageopacity="0.0"
     inkscape:pageshadow="2"
     inkscape:zoom="0.98994949"
     inkscape:cx="405.42227"
     inkscape:cy="134.27111"
     inkscape:document-units="px"
     inkscape:current-layer="layer1"
     inkscape:window-width="1024"
     inkscape:window-height="719"
     inkscape:window-x="-4"
     inkscape:window-y="-4" />
  <metadata
     id="metadata7">
    <rdf:RDF>
      <cc:Work
         rdf:about="">
        <dc:format>image/svg+xml</dc:format>
        <dc:type
           rdf:resource="http://purl.org/dc/dcmitype/StillImage" />
      </cc:Work>
    </rdf:RDF>
  </metadata>
  <g
     inkscape:label="Layer 1"
     inkscape:groupmode="layer"
     id="layer1"
     transform="translate(-178.08203,-331.55715)">
    <path
       id="path3678"
       d="M 342.47833,718.76409 C 331.30438,716.90857 327.95535,716.1404 315.47833,712.57105 C 282.55674,703.15306 249.25587,681.33466 225.10289,653.358 C 210.72424,636.70305 198.63907,617.08879 196.89722,607.58013 C 192.16749,581.76082 194.23931,554.63987 202.1116,539.32165 C 213.55608,517.05252 231.67462,501.02159 254.27686,493.16683 C 264.30413,489.68214 282.86545,488.83349 294.97833,491.3059 C 305.0715,493.36606 317.40586,497.71223 323.84217,501.47646 C 332.34033,506.44654 343.41956,515.80515 348.6915,522.46666 C 355.30288,530.82066 362.24592,544.87867 365.16502,555.82165 C 366.99891,562.69643 367.42789,566.90288 367.40862,577.82165 C 367.38753,589.77435 367.06314,592.35123 364.57836,600.30461 C 363.03482,605.24523 360.48504,611.83688 358.91217,614.95271 C 355.44348,621.82415 346.83712,633.4633 342.87284,636.64413 C 338.52307,640.13427 339.1824,642.099 346.72833,648.13295 C 365.12585,662.84418 388.75052,672.85072 411.9521,675.75935 C 423.96284,677.26506 444.0018,677.07296 453.97833,675.35647 C 479.14733,671.02607 507.28209,657.74759 523.68648,642.45699 C 530.60564,636.00762 531.67063,636.16565 526.8177,642.92161 C 501.09503,678.73122 457.26439,706.9099 412.51616,716.40596 C 389.59335,721.27043 362.96962,722.16683 342.47833,718.76409 z M 454.47833,659.89185 C 438.20482,657.7443 419.32104,649.14047 407.84488,638.6447 C 400.71643,632.12522 390.99273,619.80032 387.48976,612.84435 C 378.4931,594.97936 376.99835,570.77946 383.50475,548.32723 C 388.28986,531.81483 401.32748,514.27306 415.47833,505.30766 C 418.77833,503.21691 422.62732,500.72922 424.03165,499.77945 C 425.43597,498.82969 430.9159,496.43048 436.20928,494.44788 C 450.71205,489.01595 470.03348,487.84286 486.08698,491.41956 C 489.41179,492.16032 489.76581,491.24483 491.2335,478.11087 C 493.26177,459.96031 489.59295,434.45414 482.42306,416.85937 C 473.1373,394.07232 459.79854,375.84657 442.64283,362.50462 C 432.10223,354.30723 415.82769,343.69457 407.01598,339.27228 C 394.9376,333.21056 396.78723,332.38609 413.78787,336.25372 C 457.55139,346.20987 496.33307,370.5258 523.9449,405.32165 C 556.13062,445.88143 571.88147,503.67008 564.01116,552.32165 C 559.46161,580.44547 549.35599,609.67226 540.79615,619.46258 C 538.94042,621.58507 535.74485,625.42532 533.69487,627.99647 C 527.77115,635.42621 513.29454,646.91937 503.97833,651.58882 C 499.30333,653.93201 491.87833,656.76123 487.47833,657.87596 C 478.46181,660.16029 463.4579,661.07684 454.47833,659.89185 z M 191.28216,596.23796 C 189.00117,592.26457 183.01163,570.79136 180.91925,559.0857 C 171.62761,507.10432 185.45378,450.75781 218.05213,407.75616 C 253.28879,361.27421 310.13306,332.49951 368.47833,331.61009 C 380.32936,331.42943 380.6211,331.47999 391.97833,335.6822 C 404.34831,340.25914 408.98125,342.66425 418.72596,349.56777 C 431.3927,358.54136 445.27283,376.68421 450.51037,391.11348 C 451.78818,394.63379 453.6201,402.34072 454.58132,408.24 C 456.0706,417.38015 456.16081,420.39678 455.19148,428.6438 C 453.69516,441.37437 449.01272,456.85385 444.06567,465.42409 C 436.99934,477.66576 417.62754,494.1925 403.3983,500.1188 C 396.15152,503.13699 381.88607,506.47981 372.47833,507.36426 C 360.17775,508.52068 339.59472,503.53615 326.47833,496.22459 C 307.0294,485.38303 290.08864,464.07906 285.84792,445.12953 C 285.17456,442.12061 283.90318,439.31661 282.99087,438.82836 C 279.67454,437.05351 250.09326,453.20237 241.05372,461.72247 C 239.17019,463.49778 235.41904,466.93734 232.71785,469.36595 C 223.30475,477.82913 210.05205,496.05171 204.37668,508.3353 C 200.84261,515.98435 196.53939,528.42411 194.87862,535.79236 C 191.60723,550.30636 190.062,576.29689 192.01043,584.0348 C 192.61286,586.42729 192.96459,590.62057 192.79205,593.35321 C 192.51309,597.77122 192.34582,598.09081 191.28216,596.23796 z "
       style="fill:#000000;fill-opacity:1" />
  </g>
</svg>
